PathFileType	4	(x/y/z)	S09_PSF_T11
DataRate	CameraRate	NumFrames	NumMarkers	Units	OrigDataRate	OrigDataStartFrame	OrigNumFrames
240	240	8	51	mm	240	344	458
Frame#	Time	Sternum			R.Acromium			L.Acromium			Top.Head			R.ASIS			L.ASIS			R.PSIS			L.PSIS			R.Great.Tro			L.Great.Tro			R.Iliac.Crest			L.Iliac.Crest			V.Sacral			R.Thigh.Upper.Post			R.Thigh.Lower.Ant			R.Thigh.Lower.Post			R.Thigh.Upper.Ant			R.Knee.Lat			R.Knee.Med			R.Shank.Upper.Post			R.Shank.Lower.Ant			R.Shank.Lower.Post			R.Shank.Upper.Ant			R.Ankle.Lat			R.Ankle.Med			R.Heel.Upper			R.Heel.Med			R.Heel.Lat			R.Toe.Lat			R.Toe.Med			R.Toe.Tip			L.Thigh.Upper.Post			L.Thigh.Lower.Ant			L.Thigh.Lower.Post			L.Thigh.Upper.Ant			L.Knee.Lat			L.Knee.Med			L.Shank.Upper.Post			L.Shank.Lower.Ant			L.Shank.Lower.Post			L.Shank.Upper.Ant			L.Ankle.Lat			L.Ankle.Med			L.Heel.Upper			L.Heel.Med			L.Heel.Lat			L.Toe.Lat			L.Toe.Med			L.Toe.Tip			Cervical.Spine			Back			
		X1	Y1	Z1	X2	Y2	Z2	X3	Y3	Z3	X4	Y4	Z4	X5	Y5	Z5	X6	Y6	Z6	X7	Y7	Z7	X8	Y8	Z8	X9	Y9	Z9	X10	Y10	Z10	X11	Y11	Z11	X12	Y12	Z12	X13	Y13	Z13	X14	Y14	Z14	X15	Y15	Z15	X16	Y16	Z16	X17	Y17	Z17	X18	Y18	Z18	X19	Y19	Z19	X20	Y20	Z20	X21	Y21	Z21	X22	Y22	Z22	X23	Y23	Z23	X24	Y24	Z24	X25	Y25	Z25	X26	Y26	Z26	X27	Y27	Z27	X28	Y28	Z28	X29	Y29	Z29	X30	Y30	Z30	X31	Y31	Z31	X32	Y32	Z32	X33	Y33	Z33	X34	Y34	Z34	X35	Y35	Z35	X36	Y36	Z36	X37	Y37	Z37	X38	Y38	Z38	X39	Y39	Z39	X40	Y40	Z40	X41	Y41	Z41	X42	Y42	Z42	X43	Y43	Z43	X44	Y44	Z44	X45	Y45	Z45	X46	Y46	Z46	X47	Y47	Z47	X48	Y48	Z48	X49	Y49	Z49	X50	Y50	Z50	X51	Y51	Z51	

344	1.4292	259.81	1199.3	305.29	113.08	1434.9	461.69	115.92	1444.6	148.57	124.2	1747	306.62	207.68	1030.7	412.82	214.01	1035.1	167.6	-12.514	1037.5	326.37	-1.8038	1045.1	237.6	130.72	938.83	483.2	148.47	938.57	96.351	113.66	1101.3	453.62	106.19	1125.1	131.01	-24.667	1005.8	275.84	213.49	702.23	485.42	317.63	627.69	468.08	240	612.08	469.77	285.81	711.85	482.81	305.22	540.5	465.71	325.72	527.3	342.49	151.67	440.55	448.03	166.4	350.25	446.35	103.38	382.56	432.38	207.79	409.89	461.5	8.1592	226.38	406.76	54.187	211.99	323.9	-36.834	253.67	340.46	-47.168	222.58	310.2	-64.216	232.23	372.25	23.389	111.17	449.87	80.321	77.939	358.58	114.08	56.944	411.34	99.176	675.72	156.96	186.31	584.14	162.59	118.33	588.26	179.62	167.93	667.72	135.13	174.5	505.51	177.1	196.1	526.28	308.76	119.31	374.37	173.06	177.61	282.05	190.91	114.98	298.39	183.61	181.08	359.38	181.07	120.79	103.55	216.78	136.24	98.38	310.28	49.606	73.157	270.97	62.562	47.818	303.14	49.048	44.986	242.72	220.38	43.624	183.2	262.08	41.059	291.72	310.5	58.427	230.36	34.284	1488.2	316.53	-7.95	1220.6	290.48
345	1.4333	264.49	1199.7	305.23	118	1435.2	461.57	121.27	1445.2	148.5	129.57	1747.5	306.65	212.49	1031.5	412.39	218.64	1035.4	167.19	-7.7785	1037.9	326.22	2.9227	1045.5	237.45	136.04	939.83	483.14	152.93	938.75	96.074	118.35	1102	453.32	110.86	1125.5	130.64	-19.847	1006.1	275.66	220.71	703.76	485.43	325.43	630.08	467.61	247.91	613.8	469.76	292.9	713.99	482.49	313.75	542.71	465.31	333.87	529.64	342.12	161.49	439.82	448.38	177.96	349.82	446.41	114.24	380.94	432.85	218.28	410.24	461.48	21.566	223.14	407.21	68.084	209.55	324.39	-24.287	248.88	340.79	-33.726	217.32	310.71	-51.053	226.82	372.71	40.142	108.72	451.07	98.04	76.616	359.91	132.38	56.935	412.78	101.92	676.35	156.96	188.44	584.17	162.5	120.49	588.75	179.57	170.55	667.92	135.09	176.04	505.54	177	197.73	526.15	308.69	120.29	374.54	173.04	178.28	282.05	190.85	115.76	298.6	183.59	181.99	359.37	180.99	120.91	103.67	216.84	136.31	98.459	310.31	49.691	73.299	271.04	62.633	47.881	303.18	49.115	45.142	242.77	220.41	43.602	183.22	262.15	40.976	291.71	310.58	58.264	230.34	39.435	1488.7	316.37	-3.1155	1221.4	289.98
346	1.4375	269.18	1200.2	305.15	122.92	1435.5	461.46	126.61	1445.9	148.44	134.93	1747.9	306.68	217.31	1032.3	411.95	223.26	1035.7	166.76	-3.0393	1038.2	326.11	7.6396	1045.8	237.35	141.39	940.79	483.09	157.38	938.9	95.8	123.08	1102.7	453.02	115.49	1125.8	130.28	-15.019	1006.3	275.52	227.84	705.22	485.41	333.09	632.38	467.11	255.7	615.47	469.71	299.88	716.05	482.15	322.14	544.85	464.88	341.86	531.91	341.72	171.28	438.96	448.75	189.54	349.3	446.47	125.13	379.18	433.32	228.73	410.5	461.45	35.121	219.74	407.67	82.126	206.95	324.92	-11.519	243.9	341.13	-20.041	211.9	311.24	-37.663	221.24	373.19	56.974	106.22	452.28	115.83	75.25	361.27	150.7	56.899	414.25	104.64	676.99	156.97	190.55	584.21	162.41	122.62	589.24	179.53	173.14	668.11	135.04	177.55	505.58	176.89	199.33	526.01	308.61	121.25	374.71	173.02	178.94	282.05	190.79	116.53	298.82	183.56	182.88	359.36	180.9	121.03	103.8	216.9	136.38	98.541	310.33	49.786	73.441	271.1	62.709	47.946	303.23	49.183	45.294	242.82	220.44	43.577	183.24	262.22	40.898	291.69	310.65	58.105	230.33	44.576	1489.3	316.2	1.7241	1222.1	289.48
347	1.4417	273.88	1200.6	305.07	127.84	1435.8	461.36	131.94	1446.5	148.38	140.3	1748.3	306.71	222.16	1033.1	411.5	227.86	1035.9	166.33	1.705	1038.5	326.04	12.348	1046.1	237.28	146.76	941.72	483.04	161.8	939.03	95.531	127.83	1103.4	452.72	120.1	1126	129.93	-10.184	1006.5	275.42	234.87	706.63	485.36	340.63	634.59	466.58	263.37	617.07	469.61	306.76	718.02	481.78	330.38	546.91	464.41	349.7	534.1	341.31	181.04	437.97	449.11	201.12	348.7	446.54	136.03	377.29	433.78	239.13	410.68	461.43	48.829	216.18	408.15	96.311	204.22	325.49	1.47	238.74	341.5	-6.1156	206.32	311.8	-24.042	215.51	373.69	73.891	103.67	453.52	133.7	73.854	362.66	169.03	56.848	415.75	107.35	677.62	156.99	192.63	584.25	162.31	124.73	589.73	179.48	175.71	668.3	135	179.03	505.63	176.77	200.92	525.87	308.53	122.19	374.87	172.99	179.6	282.05	190.73	117.31	299.04	183.52	183.77	359.35	180.8	121.15	103.92	216.95	136.45	98.627	310.35	49.888	73.583	271.17	62.791	48.014	303.27	49.251	45.443	242.87	220.47	43.549	183.26	262.28	40.827	291.67	310.73	57.947	230.31	49.709	1489.8	316.05	6.5692	1222.7	289.01
348	1.4458	278.58	1201.1	304.99	132.75	1436.1	461.27	137.26	1447.1	148.33	145.66	1748.6	306.75	227.04	1033.8	411.05	232.45	1036.1	165.88	6.4555	1038.7	326.01	17.047	1046.3	237.26	152.15	942.61	483	166.19	939.14	95.268	132.62	1104	452.42	124.69	1126.2	129.58	-5.3422	1006.6	275.36	241.81	707.96	485.29	348.04	636.7	466.01	270.91	618.59	469.46	313.53	719.9	481.39	338.48	548.9	463.91	357.38	536.2	340.89	190.77	436.85	449.47	212.7	348.02	446.6	146.95	375.28	434.23	249.49	410.77	461.41	62.693	212.48	408.64	110.64	201.36	326.09	14.679	233.4	341.88	8.0509	200.59	312.4	-10.19	209.64	374.21	90.899	101.09	454.77	151.64	72.439	364.08	187.39	56.796	417.27	110.04	678.24	157.02	194.68	584.29	162.2	126.83	590.22	179.43	178.27	668.5	134.95	180.5	505.68	176.64	202.49	525.74	308.45	123.13	375.04	172.96	180.24	282.06	190.67	118.08	299.27	183.46	184.65	359.35	180.7	121.27	104.04	217	136.53	98.717	310.36	49.997	73.724	271.23	62.874	48.084	303.32	49.32	45.589	242.92	220.5	43.518	183.27	262.35	40.761	291.64	310.8	57.79	230.29	54.834	1490.2	315.89	11.42	1223.3	288.55
349	1.45	283.29	1201.5	304.9	137.66	1436.4	461.18	142.57	1447.6	148.27	151.01	1749	306.79	231.93	1034.5	410.59	237.03	1036.3	165.43	11.213	1038.9	326.01	21.74	1046.5	237.27	157.56	943.45	482.96	170.56	939.23	95.015	137.44	1104.6	452.13	129.26	1126.4	129.24	-0.4956	1006.7	275.33	248.64	709.22	485.18	355.32	638.7	465.41	278.33	620.03	469.26	320.21	721.67	480.98	346.42	550.79	463.39	364.9	538.21	340.45	200.47	435.61	449.81	224.27	347.27	446.67	157.89	373.15	434.67	259.8	410.78	461.39	76.715	208.64	409.15	125.1	198.38	326.72	28.107	227.89	342.28	22.459	194.73	313.02	3.8932	203.63	374.75	108	98.487	456.05	169.67	71.018	365.53	205.77	56.754	418.82	112.72	678.86	157.05	196.71	584.33	162.08	128.9	590.72	179.37	180.81	668.69	134.9	181.95	505.73	176.51	204.05	525.6	308.36	124.07	375.2	172.91	180.88	282.08	190.6	118.86	299.5	183.4	185.52	359.34	180.6	121.38	104.16	217.05	136.62	98.812	310.37	50.111	73.864	271.29	62.957	48.158	303.36	49.388	45.73	242.97	220.53	43.485	183.29	262.41	40.702	291.62	310.87	57.635	230.27	59.951	1490.6	315.74	16.277	1223.9	288.1
350	1.4542	288.01	1201.9	304.81	142.56	1436.6	461.1	147.87	1448.1	148.21	156.36	1749.2	306.83	236.86	1035.1	410.12	241.59	1036.4	164.97	15.979	1039.1	326.06	26.426	1046.6	237.32	162.98	944.25	482.93	174.91	939.29	94.773	142.29	1105.2	451.83	133.81	1126.5	128.91	4.3545	1006.7	275.35	255.37	710.4	485.04	362.47	640.59	464.79	285.61	621.4	469.02	326.79	723.34	480.54	354.21	552.59	462.83	372.27	540.12	339.99	210.13	434.25	450.14	235.83	346.45	446.74	168.85	370.9	435.08	270.04	410.71	461.36	90.899	204.7	409.68	139.7	195.31	327.37	41.752	222.24	342.69	37.108	188.75	313.67	18.209	197.51	375.31	125.21	95.868	457.34	187.77	69.602	367.01	224.19	56.736	420.39	115.39	679.47	157.09	198.72	584.37	161.96	130.97	591.21	179.31	183.36	668.88	134.84	183.38	505.78	176.36	205.61	525.47	308.25	124.99	375.37	172.86	181.51	282.1	190.54	119.64	299.73	183.32	186.39	359.34	180.49	121.5	104.28	217.1	136.73	98.913	310.37	50.227	74.001	271.35	63.038	48.234	303.41	49.456	45.867	243.03	220.55	43.45	183.3	262.48	40.647	291.59	310.94	57.481	230.24	65.062	1491	315.59	21.141	1224.4	287.67
351	1.4583	292.74	1202.2	304.72	147.46	1436.8	461.02	153.17	1448.5	148.16	161.71	1749.5	306.88	241.8	1035.7	409.66	246.15	1036.5	164.51	20.755	1039.2	326.13	31.107	1046.8	237.4	168.41	945	482.89	179.23	939.34	94.544	147.17	1105.7	451.54	138.34	1126.6	128.59	9.207	1006.7	275.4	262	711.49	484.88	369.48	642.37	464.13	292.77	622.67	468.74	333.27	724.9	480.08	361.83	554.29	462.24	379.49	541.93	339.52	219.76	432.76	450.44	247.37	345.57	446.8	179.82	368.54	435.47	280.22	410.57	461.32	105.25	200.64	410.23	154.43	192.15	328.05	55.615	216.45	343.13	51.998	182.66	314.36	32.759	191.27	375.91	142.52	93.246	458.66	205.96	68.205	368.51	242.65	56.754	421.98	118.04	680.07	157.14	200.71	584.42	161.82	133.02	591.71	179.24	185.89	669.06	134.78	184.81	505.84	176.21	207.16	525.34	308.14	125.91	375.55	172.8	182.14	282.12	190.46	120.43	299.98	183.23	187.25	359.34	180.38	121.62	104.41	217.15	136.85	99.019	310.38	50.344	74.136	271.41	63.114	48.313	303.46	49.522	46.001	243.08	220.58	43.413	183.31	262.54	40.597	291.56	311.01	57.328	230.21	70.168	1491.3	315.45	26.011	1224.9	287.25
